<?xml version="1.0" encoding="UTF-8"?>
<!DOCTYPE svg PUBLIC "-//W3C//DTD SVG 1.1//EN" "http://www.w3.org/Graphics/SVG/1.1/DTD/svg11.dtd">
<svg xmlns="http://www.w3.org/2000/svg" version="1.1" width="500px" height="500px" style="shape-rendering:geometricPrecision; text-rendering:geometricPrecision; image-rendering:optimizeQuality; fill-rule:evenodd; clip-rule:evenodd" xmlns:xlink="http://www.w3.org/1999/xlink">
<g><path style="opacity:1" fill="#100f0d" d="M -0.5,-0.5 C 159.167,-0.5 318.833,-0.5 478.5,-0.5C 460.483,11.2671 442.316,22.9338 424,34.5C 421.384,44.4133 419.218,54.4133 417.5,64.5C 416.127,64.6567 414.793,64.49 413.5,64C 382.392,50.3624 351.225,36.8624 320,23.5C 314.667,26.8333 309.333,30.1667 304,33.5C 297.794,31.2649 291.628,28.9315 285.5,26.5C 284.833,32.5 284.167,38.5 283.5,44.5C 277.772,48.8923 271.772,52.8923 265.5,56.5C 259.5,51.5 253.5,46.5 247.5,41.5C 243.872,43.562 240.039,45.2287 236,46.5C 235.235,46.4301 234.735,46.0967 234.5,45.5C 234.631,44.7611 234.464,44.0944 234,43.5C 233.292,44.3805 232.458,45.0472 231.5,45.5C 223.853,44.201 216.186,43.3677 208.5,43C 205.955,46.5899 203.288,50.0899 200.5,53.5C 196.368,49.8538 191.868,46.8538 187,44.5C 173.851,47.4123 160.684,50.2456 147.5,53C 160.555,51.4908 173.555,49.3241 186.5,46.5C 191.715,49.3713 196.381,53.038 200.5,57.5C 203.658,54.1724 206.658,50.6724 209.5,47C 214.854,47.1342 220.188,47.8009 225.5,49C 226.056,49.3826 226.389,49.8826 226.5,50.5C 212.503,68.988 209.837,89.1547 218.5,111C 216.644,113.181 214.477,115.015 212,116.5C 211.667,112.833 211.333,109.167 211,105.5C 203.975,113.887 199.975,123.554 199,134.5C 196.888,138.389 195.055,142.389 193.5,146.5C 172.244,154.697 150.911,162.697 129.5,170.5C 129.167,171.667 128.833,172.833 128.5,174C 130.364,193.165 131.864,212.332 133,231.5C 131.098,226.6 127.598,223.433 122.5,222C 108.415,221.909 101.915,214.743 103,200.5C 100.584,207.51 101.25,214.176 105,220.5C 110.896,224.271 117.396,226.437 124.5,227C 129.551,229.72 132.718,233.887 134,239.5C 135.275,246.525 136.275,253.525 137,260.5C 135.26,259.284 134.26,257.618 134,255.5C 133.042,250.877 132.375,246.21 132,241.5C 130.182,231.672 124.349,227.172 114.5,228C 120.492,230.659 124.325,235.159 126,241.5C 127.026,246.785 127.693,252.118 128,257.5C 129.611,260.938 131.777,263.938 134.5,266.5C 133.153,265.972 131.819,265.805 130.5,266C 133.692,268.028 136.359,270.528 138.5,273.5C 134.959,287.925 140.292,297.092 154.5,301C 156.72,304.615 159.053,308.115 161.5,311.5C 155.916,332.429 150.416,353.429 145,374.5C 135.333,386.833 125.667,399.167 116,411.5C 115.333,412.167 115.333,412.833 116,413.5C 126,401.5 136,389.5 146,377.5C 152.521,356.721 159.021,336.054 165.5,315.5C 170.464,320.965 175.63,326.298 181,331.5C 184.344,339.179 189.511,345.346 196.5,350C 199.713,350.703 202.879,350.536 206,349.5C 212.83,353.583 220.163,356.25 228,357.5C 229.833,357.333 231.667,357.167 233.5,357C 235.833,354 238.167,351 240.5,348C 239.167,346.333 237.833,344.667 236.5,343C 227.963,341.233 219.963,338.067 212.5,333.5C 209.154,336.016 205.821,335.849 202.5,333C 192.03,320.525 181.53,308.025 171,295.5C 162.983,282.118 157.316,267.785 154,252.5C 151.622,229.509 149.455,206.509 147.5,183.5C 165.97,177.509 184.303,171.009 202.5,164C 211.792,135.354 231.126,124.354 260.5,131C 268.053,132.622 274.553,136.122 280,141.5C 284.094,148.697 288.427,155.697 293,162.5C 312.5,169.831 332,176.831 351.5,183.5C 349.964,207.562 347.797,231.562 345,255.5C 342.6,267.294 338.267,278.294 332,288.5C 331.349,290.235 331.515,291.902 332.5,293.5C 326.643,302.865 319.476,311.198 311,318.5C 308.001,326.664 302.501,332.331 294.5,335.5C 292.199,334.604 289.866,334.438 287.5,335C 280.375,338.812 272.875,341.645 265,343.5C 262.955,344.638 262.288,346.305 263,348.5C 265.207,351.078 267.04,353.911 268.5,357C 277.548,358.372 285.882,356.538 293.5,351.5C 293.112,356.219 292.445,360.886 291.5,365.5C 287.486,365.334 283.486,365.501 279.5,366C 280.478,372.41 280.811,378.91 280.5,385.5C 277.808,387.862 275.141,390.196 272.5,392.5C 269.441,387.387 266.608,382.053 264,376.5C 263.289,372.412 264.456,368.912 267.5,366C 266.552,365.517 265.552,365.351 264.5,365.5C 265.415,357.751 262.415,352.085 255.5,348.5C 255.62,359.028 254.787,359.028 253,348.5C 252.052,354.345 252.552,360.012 254.5,365.5C 252.167,365.5 249.833,365.5 247.5,365.5C 248.55,360.886 248.717,356.22 248,351.5C 247,352.833 246,354.167 245,355.5C 245,354.167 245,352.833 245,351.5C 243.08,354.339 241.413,357.339 240,360.5C 239.405,359.101 239.572,357.768 240.5,356.5C 240.154,355.304 239.654,355.304 239,356.5C 236.983,360.594 235.817,364.928 235.5,369.5C 230.958,365.599 225.625,364.432 219.5,366C 217.65,368.018 215.65,369.851 213.5,371.5C 212.505,377.128 212.171,382.794 212.5,388.5C 209.659,388.56 206.993,389.226 204.5,390.5C 202.608,387.724 200.941,384.724 199.5,381.5C 202.424,377.685 203.258,373.351 202,368.5C 201.167,367.667 200.333,366.833 199.5,366C 191.833,365.333 184.167,365.333 176.5,366C 177.833,375.333 177.833,384.667 176.5,394C 180.5,394.667 184.5,394.667 188.5,394C 188,393.5 187.5,393 187,392.5C 186.782,389.574 186.282,386.74 185.5,384C 187.769,383.242 189.936,383.409 192,384.5C 193.454,387.071 194.62,389.738 195.5,392.5C 182.121,397.795 168.454,402.629 154.5,407C 168.879,403.927 182.879,399.761 196.5,394.5C 199.85,394.665 203.183,394.498 206.5,394C 205.944,393.617 205.611,393.117 205.5,392.5C 207.701,391.434 210.035,390.767 212.5,390.5C 212.67,391.822 212.337,392.989 211.5,394C 213.333,394.167 215.167,394.333 217,394.5C 219.295,394.453 221.129,393.787 222.5,392.5C 222.011,388.07 224.011,385.737 228.5,385.5C 228.777,388.448 228.444,391.281 227.5,394C 231.5,394.667 235.5,394.667 239.5,394C 239,393.5 238.5,393 238,392.5C 237.5,386.175 237.334,379.842 237.5,373.5C 240.681,372.651 243.348,370.985 245.5,368.5C 245.817,377.085 245.483,385.585 244.5,394C 248.152,394.499 251.818,394.665 255.5,394.5C 255.665,390.818 255.499,387.152 255,383.5C 252.86,382.202 253.026,381.535 255.5,381.5C 256.167,381.833 256.833,382.167 257.5,382.5C 259.372,386.412 261.372,390.245 263.5,394C 265.473,394.495 267.473,394.662 269.5,394.5C 266.457,398.544 262.791,401.877 258.5,404.5C 258.808,402.076 258.474,399.743 257.5,397.5C 256.167,404.167 256.167,410.833 257.5,417.5C 258.167,415.5 258.833,413.5 259.5,411.5C 266.242,419.428 266.909,418.761 261.5,409.5C 262.857,407.814 264.19,406.148 265.5,404.5C 270.167,400.833 274.833,397.167 279.5,393.5C 283.311,394.645 287.311,394.812 291.5,394C 290.944,393.617 290.611,393.117 290.5,392.5C 290.335,389.482 290.502,386.482 291,383.5C 293.96,381.592 295.96,378.925 297,375.5C 297.499,381.157 297.666,386.824 297.5,392.5C 297.389,393.117 297.056,393.617 296.5,394C 304.167,394.667 311.833,394.667 319.5,394C 321.995,391.781 322.995,388.948 322.5,385.5C 322.968,381.937 321.968,378.937 319.5,376.5C 323.468,373.086 323.468,369.586 319.5,366C 312.842,365.5 306.175,365.334 299.5,365.5C 299.998,360.848 300.331,356.181 300.5,351.5C 302.415,351.784 304.081,351.451 305.5,350.5C 309.332,349.182 312.499,346.848 315,343.5C 321.113,332.376 329.113,322.71 339,314.5C 341.692,311.308 344.192,307.975 346.5,304.5C 353.472,302.598 359.639,299.265 365,294.5C 366.943,291.286 367.776,287.786 367.5,284C 367.036,279.307 366.703,274.807 366.5,270.5C 365.201,271.09 364.368,272.09 364,273.5C 363.667,279.5 363.333,285.5 363,291.5C 359.467,296.838 354.634,300.005 348.5,301C 360.874,295.751 365.374,286.584 362,273.5C 363.833,270.333 366.333,267.833 369.5,266C 368.181,265.805 366.847,265.972 365.5,266.5C 367.5,264.329 369.334,261.996 371,259.5C 372.179,252.877 373.179,246.211 374,239.5C 376.106,233.728 379.939,229.562 385.5,227C 373.38,226.955 367.38,233.122 367.5,245.5C 366.833,245.167 366.167,244.833 365.5,244.5C 365.306,236.386 368.639,230.22 375.5,226C 393.733,225.783 400.567,216.95 396,199.5C 396.272,205.62 394.939,211.287 392,216.5C 390.421,218.041 388.587,219.208 386.5,220C 378.15,219.592 371.65,222.759 367,229.5C 368.625,209.878 370.125,190.211 371.5,170.5C 369.297,170.396 367.297,169.73 365.5,168.5C 371.43,160.727 377.597,153.06 384,145.5C 384.169,138.809 384.669,132.142 385.5,125.5C 392.796,122.901 400.129,120.401 407.5,118C 408.451,114.943 408.784,111.777 408.5,108.5C 420.682,112.92 432.682,117.92 444.5,123.5C 448.706,136.489 452.373,149.656 455.5,163C 452.396,167.775 448.896,172.275 445,176.5C 444.201,181.087 444.368,185.587 445.5,190C 441.667,195.167 437.833,200.333 434,205.5C 432,209.167 432,212.833 434,216.5C 443,226.833 452,237.167 461,247.5C 458.412,282.14 456.079,316.807 454,351.5C 457.285,316.454 460.618,281.454 464,246.5C 455.667,236.5 447.333,226.5 439,216.5C 436.184,213.42 435.851,210.087 438,206.5C 442.048,202.12 445.715,197.454 449,192.5C 449.333,187.833 449.667,183.167 450,178.5C 454.022,173.979 457.856,169.312 461.5,164.5C 458.026,152.271 455.026,139.938 452.5,127.5C 456.706,128.601 460.706,130.267 464.5,132.5C 469.833,142.5 475.167,152.5 480.5,162.5C 485.158,164.495 489.825,166.495 494.5,168.5C 495.329,173.467 495.829,178.467 496,183.5C 496.66,185.324 497.827,186.657 499.5,187.5C 499.5,291.5 499.5,395.5 499.5,499.5C 332.833,499.5 166.167,499.5 -0.5,499.5C -0.5,332.833 -0.5,166.167 -0.5,-0.5 Z"/></g>
<g><path style="opacity:1" fill="#201e42" d="M 478.5,-0.5 C 485.5,-0.5 492.5,-0.5 499.5,-0.5C 499.5,2.83333 499.5,6.16667 499.5,9.5C 479.517,21.1391 459.517,32.8058 439.5,44.5C 435.604,56.3075 432.27,68.3075 429.5,80.5C 427.453,82.0152 425.119,82.8485 422.5,83C 418.848,83.4986 415.182,83.6653 411.5,83.5C 410.859,87.4233 410.859,91.2566 411.5,95C 430.833,105 450.167,115 469.5,125C 475.324,135.483 480.491,146.317 485,157.5C 489.668,159.918 494.501,161.918 499.5,163.5C 499.5,171.5 499.5,179.5 499.5,187.5C 497.827,186.657 496.66,185.324 496,183.5C 495.829,178.467 495.329,173.467 494.5,168.5C 489.825,166.495 485.158,164.495 480.5,162.5C 475.167,152.5 469.833,142.5 464.5,132.5C 460.706,130.267 456.706,128.601 452.5,127.5C 455.026,139.938 458.026,152.271 461.5,164.5C 457.856,169.312 454.022,173.979 450,178.5C 449.667,183.167 449.333,187.833 449,192.5C 445.715,197.454 442.048,202.12 438,206.5C 435.851,210.087 436.184,213.42 439,216.5C 447.333,226.5 455.667,236.5 464,246.5C 460.618,281.454 457.285,316.454 454,351.5C 456.079,316.807 458.412,282.14 461,247.5C 452,237.167 443,226.833 434,216.5C 432,212.833 432,209.167 434,205.5C 437.833,200.333 441.667,195.167 445.5,190C 444.368,185.587 444.201,181.087 445,176.5C 448.896,172.275 452.396,167.775 455.5,163C 452.373,149.656 448.706,136.489 444.5,123.5C 432.682,117.92 420.682,112.92 408.5,108.5C 408.784,111.777 408.451,114.943 407.5,118C 400.129,120.401 392.796,122.901 385.5,125.5C 384.669,132.142 384.169,138.809 384,145.5C 377.597,153.06 371.43,160.727 365.5,168.5C 361.667,166.245 357.667,164.578 353.5,163.5C 358.839,155.504 364.672,147.837 371,140.5C 371.5,133.842 371.666,127.175 371.5,120.5C 365.135,119.784 358.802,119.284 352.5,119C 346.833,126 341.167,133 335.5,140C 329.231,141.712 322.898,143.212 316.5,144.5C 317.788,146.739 318.788,149.072 319.5,151.5C 317.214,151.405 315.214,150.738 313.5,149.5C 313.938,149.565 314.272,149.399 314.5,149C 313.039,146.579 311.706,144.079 310.5,141.5C 318.2,139.495 325.867,137.495 333.5,135.5C 339.026,128.474 344.359,121.308 349.5,114C 358.502,113.953 367.502,113.953 376.5,114C 382.167,111.833 387.833,109.667 393.5,107.5C 395.142,94.9635 396.809,82.4635 398.5,70C 373.167,57.6667 347.833,45.3333 322.5,33C 321.167,32.3333 319.833,32.3333 318.5,33C 314.068,35.9647 309.568,38.798 305,41.5C 300.316,39.4958 295.65,37.4958 291,35.5C 290.007,39.4423 289.34,43.4423 289,47.5C 285.333,49.8333 281.667,52.1667 278,54.5C 279,60.8333 280,67.1667 281,73.5C 276.665,77.003 272.499,80.6697 268.5,84.5C 266.738,83.7377 265.738,82.4044 265.5,80.5C 268.464,78.0381 271.297,75.3714 274,72.5C 274.404,67.5198 273.404,62.8531 271,58.5C 266.857,61.8189 262.357,64.4855 257.5,66.5C 257.5,64.8333 257.5,63.1667 257.5,61.5C 259.028,61.4827 259.528,60.816 259,59.5C 254.985,55.3179 250.818,51.3179 246.5,47.5C 242.18,50.618 237.513,51.618 232.5,50.5C 232.402,48.4471 233.069,46.7804 234.5,45.5C 234.735,46.0967 235.235,46.4301 236,46.5C 240.039,45.2287 243.872,43.562 247.5,41.5C 253.5,46.5 259.5,51.5 265.5,56.5C 271.772,52.8923 277.772,48.8923 283.5,44.5C 284.167,38.5 284.833,32.5 285.5,26.5C 291.628,28.9315 297.794,31.2649 304,33.5C 309.333,30.1667 314.667,26.8333 320,23.5C 351.225,36.8624 382.392,50.3624 413.5,64C 414.793,64.49 416.127,64.6567 417.5,64.5C 419.218,54.4133 421.384,44.4133 424,34.5C 442.316,22.9338 460.483,11.2671 478.5,-0.5 Z"/></g>
<g><path style="opacity:1" fill="#100f0d" d="M 499.5,9.5 C 499.5,60.8333 499.5,112.167 499.5,163.5C 494.501,161.918 489.668,159.918 485,157.5C 480.491,146.317 475.324,135.483 469.5,125C 450.167,115 430.833,105 411.5,95C 410.859,91.2566 410.859,87.4233 411.5,83.5C 415.182,83.6653 418.848,83.4986 422.5,83C 425.119,82.8485 427.453,82.0152 429.5,80.5C 432.27,68.3075 435.604,56.3075 439.5,44.5C 459.517,32.8058 479.517,21.1391 499.5,9.5 Z"/></g>
<g><path style="opacity:1" fill="#100f0d" d="M 313.5,149.5 C 309.257,147.879 304.924,146.546 300.5,145.5C 301.035,138.627 300.201,131.96 298,125.5C 297.667,125.167 297.333,124.833 297,124.5C 296.115,127 294.948,129.333 293.5,131.5C 287.291,124.744 283.458,116.744 282,107.5C 278.469,99.1659 273.969,91.4992 268.5,84.5C 272.499,80.6697 276.665,77.003 281,73.5C 280,67.1667 279,60.8333 278,54.5C 281.667,52.1667 285.333,49.8333 289,47.5C 289.34,43.4423 290.007,39.4423 291,35.5C 295.65,37.4958 300.316,39.4958 305,41.5C 309.568,38.798 314.068,35.9647 318.5,33C 319.833,32.3333 321.167,32.3333 322.5,33C 347.833,45.3333 373.167,57.6667 398.5,70C 396.809,82.4635 395.142,94.9635 393.5,107.5C 387.833,109.667 382.167,111.833 376.5,114C 367.502,113.953 358.502,113.953 349.5,114C 344.359,121.308 339.026,128.474 333.5,135.5C 325.867,137.495 318.2,139.495 310.5,141.5C 311.706,144.079 313.039,146.579 314.5,149C 314.272,149.399 313.938,149.565 313.5,149.5 Z"/></g>
<g><path style="opacity:1" fill="#1f1d3d" d="M 231.5,45.5 C 229.833,47.1667 228.167,48.8333 226.5,50.5C 226.389,49.8826 226.056,49.3826 225.5,49C 220.188,47.8009 214.854,47.1342 209.5,47C 206.658,50.6724 203.658,54.1724 200.5,57.5C 196.381,53.038 191.715,49.3713 186.5,46.5C 173.555,49.3241 160.555,51.4908 147.5,53C 160.684,50.2456 173.851,47.4123 187,44.5C 191.868,46.8538 196.368,49.8538 200.5,53.5C 203.288,50.0899 205.955,46.5899 208.5,43C 216.186,43.3677 223.853,44.201 231.5,45.5 Z"/></g>
<g><path style="opacity:1" fill="#3d389a" d="M 234.5,45.5 C 233.069,46.7804 232.402,48.4471 232.5,50.5C 229.791,63.7805 233.458,75.1139 243.5,84.5C 244.167,85.8333 245.167,86.8333 246.5,87.5C 249.752,91.7843 253.752,95.1176 258.5,97.5C 260.281,100.046 262.614,101.546 265.5,102C 264.182,99.1761 262.515,96.6761 260.5,94.5C 257.698,88.4266 255.698,82.0933 254.5,75.5C 254.5,71.8333 254.5,68.1667 254.5,64.5C 255.272,63.3065 256.272,62.3065 257.5,61.5C 257.5,63.1667 257.5,64.8333 257.5,66.5C 258.62,72.0765 261.287,76.7432 265.5,80.5C 265.738,82.4044 266.738,83.7377 268.5,84.5C 273.969,91.4992 278.469,99.1659 282,107.5C 283.458,116.744 287.291,124.744 293.5,131.5C 294.948,129.333 296.115,127 297,124.5C 297.333,124.833 297.667,125.167 298,125.5C 300.201,131.96 301.035,138.627 300.5,145.5C 304.924,146.546 309.257,147.879 313.5,149.5C 315.214,150.738 317.214,151.405 319.5,151.5C 330.631,156.099 341.964,160.099 353.5,163.5C 357.667,164.578 361.667,166.245 365.5,168.5C 367.297,169.73 369.297,170.396 371.5,170.5C 370.125,190.211 368.625,209.878 367,229.5C 371.65,222.759 378.15,219.592 386.5,220C 388.587,219.208 390.421,218.041 392,216.5C 394.939,211.287 396.272,205.62 396,199.5C 400.567,216.95 393.733,225.783 375.5,226C 368.639,230.22 365.306,236.386 365.5,244.5C 364.578,248.112 363.911,251.779 363.5,255.5C 362.527,257.068 362.36,258.735 363,260.5C 365.238,258.691 366.405,256.358 366.5,253.5C 366.575,250.794 366.908,248.127 367.5,245.5C 367.38,233.122 373.38,226.955 385.5,227C 379.939,229.562 376.106,233.728 374,239.5C 373.179,246.211 372.179,252.877 371,259.5C 369.334,261.996 367.5,264.329 365.5,266.5C 366.847,265.972 368.181,265.805 369.5,266C 366.333,267.833 363.833,270.333 362,273.5C 365.374,286.584 360.874,295.751 348.5,301C 354.634,300.005 359.467,296.838 363,291.5C 363.333,285.5 363.667,279.5 364,273.5C 364.368,272.09 365.201,271.09 366.5,270.5C 366.703,274.807 367.036,279.307 367.5,284C 367.776,287.786 366.943,291.286 365,294.5C 359.639,299.265 353.472,302.598 346.5,304.5C 344.192,307.975 341.692,311.308 339,314.5C 329.113,322.71 321.113,332.376 315,343.5C 312.499,346.848 309.332,349.182 305.5,350.5C 302.781,350.603 300.115,350.269 297.5,349.5C 295.927,349.752 294.594,350.418 293.5,351.5C 285.882,356.538 277.548,358.372 268.5,357C 267.04,353.911 265.207,351.078 263,348.5C 262.288,346.305 262.955,344.638 265,343.5C 272.875,341.645 280.375,338.812 287.5,335C 289.866,334.438 292.199,334.604 294.5,335.5C 302.501,332.331 308.001,326.664 311,318.5C 319.476,311.198 326.643,302.865 332.5,293.5C 331.515,291.902 331.349,290.235 332,288.5C 338.267,278.294 342.6,267.294 345,255.5C 347.797,231.562 349.964,207.562 351.5,183.5C 332,176.831 312.5,169.831 293,162.5C 288.427,155.697 284.094,148.697 280,141.5C 274.553,136.122 268.053,132.622 260.5,131C 231.126,124.354 211.792,135.354 202.5,164C 184.303,171.009 165.97,177.509 147.5,183.5C 149.455,206.509 151.622,229.509 154,252.5C 157.316,267.785 162.983,282.118 171,295.5C 181.53,308.025 192.03,320.525 202.5,333C 205.821,335.849 209.154,336.016 212.5,333.5C 219.963,338.067 227.963,341.233 236.5,343C 237.833,344.667 239.167,346.333 240.5,348C 238.167,351 235.833,354 233.5,357C 231.667,357.167 229.833,357.333 228,357.5C 220.163,356.25 212.83,353.583 206,349.5C 202.879,350.536 199.713,350.703 196.5,350C 189.511,345.346 184.344,339.179 181,331.5C 175.63,326.298 170.464,320.965 165.5,315.5C 164.5,313.833 163.167,312.5 161.5,311.5C 159.053,308.115 156.72,304.615 154.5,301C 140.292,297.092 134.959,287.925 138.5,273.5C 138.369,272.761 138.536,272.094 139,271.5C 140.189,273.233 141.356,274.9 142.5,276.5C 142.191,271.188 139.524,267.854 134.5,266.5C 131.777,263.938 129.611,260.938 128,257.5C 127.693,252.118 127.026,246.785 126,241.5C 124.325,235.159 120.492,230.659 114.5,228C 124.349,227.172 130.182,231.672 132,241.5C 132.375,246.21 133.042,250.877 134,255.5C 134.26,257.618 135.26,259.284 137,260.5C 136.275,253.525 135.275,246.525 134,239.5C 132.718,233.887 129.551,229.72 124.5,227C 117.396,226.437 110.896,224.271 105,220.5C 101.25,214.176 100.584,207.51 103,200.5C 101.915,214.743 108.415,221.909 122.5,222C 127.598,223.433 131.098,226.6 133,231.5C 131.864,212.332 130.364,193.165 128.5,174C 128.833,172.833 129.167,171.667 129.5,170.5C 150.911,162.697 172.244,154.697 193.5,146.5C 195.055,142.389 196.888,138.389 199,134.5C 199.975,123.554 203.975,113.887 211,105.5C 211.333,109.167 211.667,112.833 212,116.5C 214.477,115.015 216.644,113.181 218.5,111C 209.837,89.1547 212.503,68.988 226.5,50.5C 228.167,48.8333 229.833,47.1667 231.5,45.5C 232.458,45.0472 233.292,44.3805 234,43.5C 234.464,44.0944 234.631,44.7611 234.5,45.5 Z"/></g>
<g><path style="opacity:1" fill="#100f0f" d="M 257.5,61.5 C 256.272,62.3065 255.272,63.3065 254.5,64.5C 253.279,65.0283 252.113,65.695 251,66.5C 248.572,72.6409 246.072,78.6409 243.5,84.5C 233.458,75.1139 229.791,63.7805 232.5,50.5C 237.513,51.618 242.18,50.618 246.5,47.5C 250.818,51.3179 254.985,55.3179 259,59.5C 259.528,60.816 259.028,61.4827 257.5,61.5 Z"/></g>
<g><path style="opacity:1" fill="#110f0f" d="M 265.5,80.5 C 261.287,76.7432 258.62,72.0765 257.5,66.5C 262.357,64.4855 266.857,61.8189 271,58.5C 273.404,62.8531 274.404,67.5198 274,72.5C 271.297,75.3714 268.464,78.0381 265.5,80.5 Z"/></g>
<g><path style="opacity:1" fill="#1f1d3f" d="M 254.5,64.5 C 254.5,68.1667 254.5,71.8333 254.5,75.5C 253.71,74.3915 253.21,73.0581 253,71.5C 250.538,76.7518 248.371,82.0852 246.5,87.5C 245.167,86.8333 244.167,85.8333 243.5,84.5C 246.072,78.6409 248.572,72.6409 251,66.5C 252.113,65.695 253.279,65.0283 254.5,64.5 Z"/></g>
<g><path style="opacity:1" fill="#111012" d="M 254.5,75.5 C 255.698,82.0933 257.698,88.4266 260.5,94.5C 260.573,96.0269 259.906,97.0269 258.5,97.5C 253.752,95.1176 249.752,91.7843 246.5,87.5C 248.371,82.0852 250.538,76.7518 253,71.5C 253.21,73.0581 253.71,74.3915 254.5,75.5 Z"/></g>
<g><path style="opacity:1" fill="#201d3d" d="M 260.5,94.5 C 262.515,96.6761 264.182,99.1761 265.5,102C 262.614,101.546 260.281,100.046 258.5,97.5C 259.906,97.0269 260.573,96.0269 260.5,94.5 Z"/></g>
<g><path style="opacity:1" fill="#100f0e" d="M 353.5,163.5 C 341.964,160.099 330.631,156.099 319.5,151.5C 318.788,149.072 317.788,146.739 316.5,144.5C 322.898,143.212 329.231,141.712 335.5,140C 341.167,133 346.833,126 352.5,119C 358.802,119.284 365.135,119.784 371.5,120.5C 371.666,127.175 371.5,133.842 371,140.5C 364.672,147.837 358.839,155.504 353.5,163.5 Z"/></g>
<g><path style="opacity:1" fill="#20214c" d="M 235.5,137.5 C 237.199,137.34 238.866,137.506 240.5,138C 235.367,148.102 231.2,158.602 228,169.5C 227.832,179.517 227.332,189.517 226.5,199.5C 220.398,194.41 213.398,192.244 205.5,193C 205,193.5 204.5,194 204,194.5C 204.444,184.439 205.61,174.439 207.5,164.5C 211.669,166.59 216.003,168.09 220.5,169C 216.984,165.651 213.651,162.151 210.5,158.5C 216.209,148.104 224.542,141.104 235.5,137.5 Z"/></g>
<g><path style="opacity:1" fill="#6b68a0" d="M 200.5,172.5 C 186.152,177.561 171.819,182.728 157.5,188C 156.316,189.18 155.649,190.68 155.5,192.5C 157.277,213.211 159.443,233.878 162,254.5C 164.384,264.835 168.218,274.502 173.5,283.5C 173.291,284.922 172.791,286.255 172,287.5C 165.913,277.578 161.58,266.911 159,255.5C 156.142,232.566 153.976,209.566 152.5,186.5C 168.5,180.833 184.5,175.167 200.5,169.5C 200.5,170.5 200.5,171.5 200.5,172.5 Z"/></g>
<g><path style="opacity:1" fill="#23234d" d="M 319.5,180.5 C 313.727,178.291 307.893,175.958 302,173.5C 301.5,173.667 301,173.833 300.5,174C 306.045,177.614 312.045,179.78 318.5,180.5C 312.695,181.845 306.695,182.345 300.5,182C 297.912,177.347 296.079,172.513 295,167.5C 305.097,171.463 315.263,175.296 325.5,179C 323.564,179.813 321.564,180.313 319.5,180.5 Z"/></g>
<g><path style="opacity:1" fill="#6966a2" d="M 200.5,173.5 C 199.528,186.112 197.861,198.612 195.5,211C 192.5,211.667 189.5,211.667 186.5,211C 179.773,208.803 173.439,205.803 167.5,202C 164.829,201.167 162.496,201.667 160.5,203.5C 159.242,199.877 159.242,196.21 160.5,192.5C 173.86,186.153 187.193,179.82 200.5,173.5 Z"/></g>
<g><path style="opacity:1" fill="#625f98" d="M 319.5,180.5 C 319.167,180.5 318.833,180.5 318.5,180.5C 312.045,179.78 306.045,177.614 300.5,174C 301,173.833 301.5,173.667 302,173.5C 307.893,175.958 313.727,178.291 319.5,180.5 Z"/></g>
<g><path style="opacity:1" fill="#f4f3f8" d="M 200.5,172.5 C 200.5,172.833 200.5,173.167 200.5,173.5C 187.193,179.82 173.86,186.153 160.5,192.5C 159.242,196.21 159.242,199.877 160.5,203.5C 160.322,204.695 159.989,205.862 159.5,207C 160.32,208.8 160.986,210.634 161.5,212.5C 162.009,227.93 163.509,243.263 166,258.5C 167.974,266.601 170.808,274.268 174.5,281.5C 174.672,282.492 174.338,283.158 173.5,283.5C 168.218,274.502 164.384,264.835 162,254.5C 159.443,233.878 157.277,213.211 155.5,192.5C 155.649,190.68 156.316,189.18 157.5,188C 171.819,182.728 186.152,177.561 200.5,172.5 Z"/></g>
<g><path style="opacity:1" fill="#23234e" d="M 327.5,280.5 C 332.636,272.281 336.136,263.281 338,253.5C 341.055,234.426 342.555,215.426 342.5,196.5C 343.632,193.106 344.966,189.773 346.5,186.5C 345.727,209.176 343.894,231.843 341,254.5C 338.548,265.064 334.715,275.064 329.5,284.5C 328.638,283.234 327.971,281.901 327.5,280.5 Z"/></g>
<g><path style="opacity:1" fill="#66639e" d="M 325.5,189.5 C 326.239,189.369 326.906,189.536 327.5,190C 307.732,212.558 283.065,226.891 253.5,233C 230.843,235.834 209.176,232.501 188.5,223C 182.601,219.769 177.268,215.769 172.5,211C 188.207,215.593 204.207,219.593 220.5,223C 227.452,224.397 234.452,224.73 241.5,224C 270.377,214.387 298.377,202.887 325.5,189.5 Z"/></g>
<g><path style="opacity:1" fill="#625f9a" d="M 342.5,196.5 C 342.555,215.426 341.055,234.426 338,253.5C 336.136,263.281 332.636,272.281 327.5,280.5C 327.5,280.167 327.5,279.833 327.5,279.5C 329.559,272.155 331.725,264.822 334,257.5C 336.164,239.527 337.997,221.527 339.5,203.5C 340.773,201.287 341.773,198.954 342.5,196.5 Z"/></g>
<g><path style="opacity:1" fill="#21224d" d="M 339.5,203.5 C 337.997,221.527 336.164,239.527 334,257.5C 331.725,264.822 329.559,272.155 327.5,279.5C 326.766,278.122 326.099,276.622 325.5,275C 321.207,273.069 316.874,271.236 312.5,269.5C 311.738,268.372 311.071,267.205 310.5,266C 307.189,266.215 303.856,266.215 300.5,266C 301.591,263.936 301.758,261.769 301,259.5C 299.779,258.226 298.946,256.726 298.5,255C 299.185,252.205 299.685,249.372 300,246.5C 304.61,241.979 306.277,236.645 305,230.5C 318.149,223.52 329.649,214.52 339.5,203.5 Z"/></g>
<g><path style="opacity:1" fill="#6966a2" d="M 161.5,212.5 C 171.605,223.259 183.605,231.259 197.5,236.5C 198.806,240.446 200.639,244.112 203,247.5C 203.339,250.036 203.839,252.536 204.5,255C 203.449,257.361 202.449,259.694 201.5,262C 201.645,263.226 201.978,264.393 202.5,265.5C 199.222,266.021 195.889,266.187 192.5,266C 188.378,270.223 183.378,273.056 177.5,274.5C 175.918,276.577 174.918,278.91 174.5,281.5C 170.808,274.268 167.974,266.601 166,258.5C 163.509,243.263 162.009,227.93 161.5,212.5 Z"/></g>
<g><path style="opacity:1" fill="#ebebee" d="M 233.5,241.5 C 233.961,243.55 234.628,245.55 235.5,247.5C 235,247.833 234.5,248.167 234,248.5C 225.084,244.975 215.917,243.142 206.5,243C 207.823,243.816 208.489,244.983 208.5,246.5C 206.034,244.26 204.034,241.593 202.5,238.5C 203.333,238.167 204.167,237.833 205,237.5C 214.457,239.215 223.957,240.549 233.5,241.5 Z"/></g>
<g><path style="opacity:1" fill="#222048" d="M 365.5,244.5 C 366.167,244.833 366.833,245.167 367.5,245.5C 366.908,248.127 366.575,250.794 366.5,253.5C 365.5,254.167 364.5,254.833 363.5,255.5C 363.911,251.779 364.578,248.112 365.5,244.5 Z"/></g>
<g><path style="opacity:1" fill="#151319" d="M 366.5,253.5 C 366.405,256.358 365.238,258.691 363,260.5C 362.36,258.735 362.527,257.068 363.5,255.5C 364.5,254.833 365.5,254.167 366.5,253.5 Z"/></g>
<g><path style="opacity:1" fill="#8f8f8e" d="M 209.5,256.5 C 211.895,257.882 212.395,259.548 211,261.5C 209.955,260.627 209.122,259.627 208.5,258.5C 208.833,257.833 209.167,257.167 209.5,256.5 Z"/></g>
<g><path style="opacity:1" fill="#f4f4f4" d="M 207.5,249.5 C 208.675,249.281 209.675,249.614 210.5,250.5C 212.325,258.645 216.991,264.312 224.5,267.5C 222.768,270.468 221.435,273.635 220.5,277C 220.978,278.303 221.645,279.469 222.5,280.5C 221.167,280.167 219.833,279.833 218.5,279.5C 213.429,275.761 209.429,271.095 206.5,265.5C 205.905,262.934 206.572,260.601 208.5,258.5C 209.122,259.627 209.955,260.627 211,261.5C 212.395,259.548 211.895,257.882 209.5,256.5C 208.434,254.299 207.767,251.965 207.5,249.5 Z"/></g>
<g><path style="opacity:1" fill="#32336a" d="M 280.5,283.5 C 279.167,283.5 277.833,283.5 276.5,283.5C 283.746,278.808 284.079,273.308 277.5,267C 273.259,265.543 268.926,265.209 264.5,266C 267.461,267.265 270.461,268.431 273.5,269.5C 277.974,274.495 277.974,279.162 273.5,283.5C 271.712,283.785 270.045,283.452 268.5,282.5C 269.506,281.604 269.506,280.938 268.5,280.5C 267.264,281.246 265.93,281.579 264.5,281.5C 261.566,279.449 258.399,277.782 255,276.5C 254.333,274.833 254.333,273.167 255,271.5C 256.529,270.271 257.696,268.771 258.5,267C 251.547,265.17 244.547,265.003 237.5,266.5C 233.125,265.035 228.792,265.369 224.5,267.5C 216.991,264.312 212.325,258.645 210.5,250.5C 209.675,249.614 208.675,249.281 207.5,249.5C 208.11,248.609 208.443,247.609 208.5,246.5C 208.489,244.983 207.823,243.816 206.5,243C 215.917,243.142 225.084,244.975 234,248.5C 234.5,248.167 235,247.833 235.5,247.5C 234.628,245.55 233.961,243.55 233.5,241.5C 234.167,241.833 234.833,242.167 235.5,242.5C 237.334,246.479 238.834,250.479 240,254.5C 230.927,248.776 221.093,245.276 210.5,244C 214.409,256.732 223.076,263.232 236.5,263.5C 245.999,262.19 255.499,262.19 265,263.5C 273.267,263.69 280.434,261.023 286.5,255.5C 288.347,252.798 289.513,249.798 290,246.5C 290.833,245.667 291.667,244.833 292.5,244C 282.281,245.239 272.615,248.406 263.5,253.5C 263.167,253.333 262.833,253.167 262.5,253C 264.23,249.439 265.73,245.939 267,242.5C 262.718,244.951 258.884,247.951 255.5,251.5C 256.151,248.197 257.818,245.53 260.5,243.5C 261.5,243.167 262.167,242.5 262.5,241.5C 274.946,239.68 287.113,236.68 299,232.5C 301.045,233.638 301.712,235.305 301,237.5C 298.695,241.304 296.195,244.97 293.5,248.5C 295.611,250.981 295.611,253.647 293.5,256.5C 294.248,258.332 295.248,259.999 296.5,261.5C 296.566,265.841 294.566,269.341 290.5,272C 290.833,272.333 291.167,272.667 291.5,273C 287.938,276.732 284.271,280.232 280.5,283.5 Z"/></g>
<g><path style="opacity:1" fill="#121111" d="M 235.5,242.5 C 236.167,242.833 236.833,243.167 237.5,243.5C 242.8,247.133 247.467,251.466 251.5,256.5C 252.857,254.814 254.19,253.148 255.5,251.5C 258.884,247.951 262.718,244.951 267,242.5C 265.73,245.939 264.23,249.439 262.5,253C 262.833,253.167 263.167,253.333 263.5,253.5C 272.615,248.406 282.281,245.239 292.5,244C 291.667,244.833 290.833,245.667 290,246.5C 289.513,249.798 288.347,252.798 286.5,255.5C 280.434,261.023 273.267,263.69 265,263.5C 255.499,262.19 245.999,262.19 236.5,263.5C 223.076,263.232 214.409,256.732 210.5,244C 221.093,245.276 230.927,248.776 240,254.5C 238.834,250.479 237.334,246.479 235.5,242.5 Z"/></g>
<g><path style="opacity:1" fill="#636098" d="M 271.5,253.5 C 274.167,253.5 276.833,253.5 279.5,253.5C 279.993,257.338 278.326,259.338 274.5,259.5C 269.632,259.029 268.632,257.029 271.5,253.5 Z"/></g>
<g><path style="opacity:1" fill="#626098" d="M 223.5,253.5 C 226.881,253.46 230.214,253.793 233.5,254.5C 233.511,257.822 231.845,259.489 228.5,259.5C 224.674,259.338 223.007,257.338 223.5,253.5 Z"/></g>
<g><path style="opacity:1" fill="#f6f6f7" d="M 237.5,243.5 C 239.948,242.527 242.615,242.194 245.5,242.5C 248.833,242.5 252.167,242.5 255.5,242.5C 257.415,242.216 259.081,242.549 260.5,243.5C 257.818,245.53 256.151,248.197 255.5,251.5C 254.19,253.148 252.857,254.814 251.5,256.5C 247.467,251.466 242.8,247.133 237.5,243.5 Z"/></g>
<g><path style="opacity:1" fill="#727278" d="M 255.5,242.5 C 257.607,241.532 259.941,241.198 262.5,241.5C 262.167,242.5 261.5,243.167 260.5,243.5C 259.081,242.549 257.415,242.216 255.5,242.5 Z"/></g>
<g><path style="opacity:1" fill="#5f5e5d" d="M 235.5,242.5 C 238.833,241.167 242.167,241.167 245.5,242.5C 242.615,242.194 239.948,242.527 237.5,243.5C 236.833,243.167 236.167,242.833 235.5,242.5 Z"/></g>
<g><path style="opacity:1" fill="#191818" d="M 237.5,266.5 C 234.821,267.226 232.154,268.059 229.5,269C 228.177,269.816 227.511,270.983 227.5,272.5C 226.694,273.997 226.028,275.664 225.5,277.5C 226.152,279.45 225.152,280.45 222.5,280.5C 221.645,279.469 220.978,278.303 220.5,277C 221.435,273.635 222.768,270.468 224.5,267.5C 228.792,265.369 233.125,265.035 237.5,266.5 Z"/></g>
<g><path style="opacity:1" fill="#f6f6f7" d="M 264.5,281.5 C 269.634,285.252 274.968,285.919 280.5,283.5C 283.067,283.855 285.567,284.521 288,285.5C 290.124,282.701 292.79,280.701 296,279.5C 298.867,279.839 301.367,280.839 303.5,282.5C 303.953,283.458 304.619,284.292 305.5,285C 305.795,286.714 305.462,288.547 304.5,290.5C 300.776,295.282 298.109,300.615 296.5,306.5C 294.665,307.122 293.498,308.456 293,310.5C 291.855,313.432 291.022,316.432 290.5,319.5C 290.345,322.609 289.678,325.609 288.5,328.5C 284.871,326.7 281.371,324.7 278,322.5C 277.814,320.1 277.314,317.766 276.5,315.5C 274.183,313.684 272.016,311.684 270,309.5C 261.515,315.415 252.182,317.081 242,314.5C 238.707,313.444 235.874,311.777 233.5,309.5C 233.62,299.418 230.62,290.418 224.5,282.5C 226.017,282.511 227.184,283.177 228,284.5C 229.827,282.76 229.66,281.093 227.5,279.5C 227.303,277.52 227.97,275.52 229.5,273.5C 229.043,272.702 228.376,272.369 227.5,272.5C 227.511,270.983 228.177,269.816 229.5,269C 232.154,268.059 234.821,267.226 237.5,266.5C 244.547,265.003 251.547,265.17 258.5,267C 257.696,268.771 256.529,270.271 255,271.5C 254.333,273.167 254.333,274.833 255,276.5C 258.399,277.782 261.566,279.449 264.5,281.5 Z"/></g>
<g><path style="opacity:1" fill="#141218" d="M 276.5,283.5 C 275.5,283.5 274.5,283.5 273.5,283.5C 277.974,279.162 277.974,274.495 273.5,269.5C 270.461,268.431 267.461,267.265 264.5,266C 268.926,265.209 273.259,265.543 277.5,267C 284.079,273.308 283.746,278.808 276.5,283.5 Z"/></g>
<g><path style="opacity:1" fill="#2f2a69" d="M 134.5,266.5 C 139.524,267.854 142.191,271.188 142.5,276.5C 141.356,274.9 140.189,273.233 139,271.5C 138.536,272.094 138.369,272.761 138.5,273.5C 136.359,270.528 133.692,268.028 130.5,266C 131.819,265.805 133.153,265.972 134.5,266.5 Z"/></g>
<g><path style="opacity:1" fill="#202049" d="M 194.5,270.5 C 199.021,270.296 203.021,271.462 206.5,274C 200.869,278.094 196.869,276.928 194.5,270.5 Z"/></g>
<g><path style="opacity:1" fill="#38348c" d="M 132.5,270.5 C 134.752,270.916 136.252,272.249 137,274.5C 133.488,288.648 138.654,297.815 152.5,302C 143.035,301.846 136.535,297.346 133,288.5C 133.18,282.451 133.014,276.451 132.5,270.5 Z"/></g>
<g><path style="opacity:1" fill="#20214b" d="M 185.5,283.5 C 184.04,281.537 182.373,279.704 180.5,278C 184.395,276.219 188.395,274.719 192.5,273.5C 195.58,274.201 196.913,275.868 196.5,278.5C 192.889,280.475 189.223,282.142 185.5,283.5 Z"/></g>
<g><path style="opacity:1" fill="#20204a" d="M 320.5,293.5 C 320.094,290.169 318.76,287.169 316.5,284.5C 310.451,280.315 303.951,276.982 297,274.5C 296.383,273.551 296.549,272.718 297.5,272C 300.757,270.957 304.09,270.457 307.5,270.5C 307.302,272.575 307.135,274.575 307,276.5C 309.011,272.998 310.344,272.998 311,276.5C 311.689,275.643 312.522,274.977 313.5,274.5C 316.51,275.836 319.51,277.169 322.5,278.5C 323.599,281.296 324.599,284.129 325.5,287C 324.015,289.317 322.348,291.484 320.5,293.5 Z"/></g>
<g><path style="opacity:1" fill="#1d1a31" d="M 365.5,266.5 C 363.873,268.63 362.04,270.63 360,272.5C 358.777,276.443 357.11,280.11 355,283.5C 355.897,279.474 357.231,275.474 359,271.5C 360.777,269.21 362.944,267.543 365.5,266.5 Z"/></g>
<g><path style="opacity:1" fill="#1e1b35" d="M 142.5,276.5 C 143.391,278.291 144.391,280.124 145.5,282C 145.167,282.167 144.833,282.333 144.5,282.5C 142.914,280.827 142.247,278.827 142.5,276.5 Z"/></g>
<g><path style="opacity:1" fill="#faf9fa" d="M 216.5,290.5 C 218.552,296.576 220.552,302.576 222.5,308.5C 224.277,312.998 224.777,317.665 224,322.5C 220.583,325.461 216.75,327.794 212.5,329.5C 211.548,327.955 211.215,326.288 211.5,324.5C 211.167,323.833 210.833,323.167 210.5,322.5C 210.599,319.763 210.265,317.096 209.5,314.5C 209.5,313.833 209.167,313.5 208.5,313.5C 206.333,304.831 202.333,297.165 196.5,290.5C 196.872,287.815 197.206,285.148 197.5,282.5C 200.652,280.746 203.985,279.913 207.5,280C 210.399,283.665 213.399,287.165 216.5,290.5 Z"/></g>
<g><path style="opacity:1" fill="#a4a4a4" d="M 227.5,272.5 C 228.376,272.369 229.043,272.702 229.5,273.5C 227.97,275.52 227.303,277.52 227.5,279.5C 229.66,281.093 229.827,282.76 228,284.5C 227.184,283.177 226.017,282.511 224.5,282.5C 223.5,282.167 222.833,281.5 222.5,280.5C 225.152,280.45 226.152,279.45 225.5,277.5C 226.028,275.664 226.694,273.997 227.5,272.5 Z"/></g>
<g><path style="opacity:1" fill="#191817" d="M 245.5,279.5 C 261.299,277.803 268.799,284.803 268,300.5C 262.516,312.71 253.683,315.877 241.5,310C 234.625,304.166 232.792,296.999 236,288.5C 238.406,284.592 241.572,281.592 245.5,279.5 Z"/></g>
<g><path style="opacity:1" fill="#20204a" d="M 185.5,283.5 C 183.464,289.063 182.964,294.73 184,300.5C 180.879,297.22 178.379,293.553 176.5,289.5C 177.184,286.275 178.351,283.275 180,280.5C 181.741,281.758 183.574,282.758 185.5,283.5 Z"/></g>
<g><path style="opacity:1" fill="#313165" d="M 218.5,279.5 C 219.833,279.833 221.167,280.167 222.5,280.5C 222.833,281.5 223.5,282.167 224.5,282.5C 230.62,290.418 233.62,299.418 233.5,309.5C 231.186,311.477 228.853,313.477 226.5,315.5C 225.436,311.808 224.27,308.142 223,304.5C 222.51,305.793 222.343,307.127 222.5,308.5C 220.552,302.576 218.552,296.576 216.5,290.5C 215.782,288.863 215.616,287.197 216,285.5C 218.071,284.475 220.238,283.642 222.5,283C 220.907,282.051 219.574,280.885 218.5,279.5 Z"/></g>
<g><path style="opacity:1" fill="#a6a6b8" d="M 273.5,283.5 C 274.5,283.5 275.5,283.5 276.5,283.5C 277.833,283.5 279.167,283.5 280.5,283.5C 274.968,285.919 269.634,285.252 264.5,281.5C 265.93,281.579 267.264,281.246 268.5,280.5C 269.506,280.938 269.506,281.604 268.5,282.5C 270.045,283.452 271.712,283.785 273.5,283.5 Z"/></g>
<g><path style="opacity:1" fill="#6c6c6a" d="M 253.5,284.5 C 254.167,284.5 254.5,284.833 254.5,285.5C 252.473,285.338 250.473,285.505 248.5,286C 246.004,287.666 243.671,289.5 241.5,291.5C 243.613,286.105 247.613,283.772 253.5,284.5 Z"/></g>
<g><path style="opacity:1" fill="#dedede" d="M 252.5,282.5 C 252.833,283.167 253.167,283.833 253.5,284.5C 247.613,283.772 243.613,286.105 241.5,291.5C 240.778,291.918 240.278,292.584 240,293.5C 239.601,293.272 239.435,292.938 239.5,292.5C 241.492,286.18 245.826,282.846 252.5,282.5 Z"/></g>
<g><path style="opacity:1" fill="#9a9998" d="M 303.5,282.5 C 306.346,283.198 308.68,284.198 310.5,285.5C 308.481,287.19 306.481,288.856 304.5,290.5C 305.462,288.547 305.795,286.714 305.5,285C 304.619,284.292 303.953,283.458 303.5,282.5 Z"/></g>
<g><path style="opacity:1" fill="#6c6b6a" d="M 197.5,282.5 C 197.206,285.148 196.872,287.815 196.5,290.5C 194.852,289.19 193.186,287.857 191.5,286.5C 193.355,284.987 195.355,283.654 197.5,282.5 Z"/></g>
<g><path style="opacity:1" fill="#131216" d="M 220.5,288.5 C 221.542,287.209 222.708,287.209 224,288.5C 227.623,294.409 230.123,300.743 231.5,307.5C 231.192,308.308 230.692,308.975 230,309.5C 228.638,301.541 225.472,294.541 220.5,288.5 Z"/></g>
<g><path style="opacity:1" fill="#282725" d="M 281.5,287.5 C 278.252,293.906 275.585,300.572 273.5,307.5C 272.723,309.82 272.057,309.486 271.5,306.5C 272.85,299.995 275.35,293.995 279,288.5C 279.671,287.748 280.504,287.414 281.5,287.5 Z"/></g>
<g><path style="opacity:1" fill="#121113" d="M 220.5,288.5 C 224.002,295.172 226.668,302.172 228.5,309.5C 228.192,310.308 227.692,310.975 227,311.5C 225.002,303.505 221.835,296.005 217.5,289C 218.352,287.272 219.352,287.105 220.5,288.5 Z"/></g>
<g><path style="opacity:1" fill="#222120" d="M 283.5,287.5 C 284.497,287.47 285.164,287.97 285.5,289C 281.169,295.988 278.003,303.488 276,311.5C 274.812,310.437 274.312,309.103 274.5,307.5C 276.713,300.548 279.713,293.881 283.5,287.5 Z"/></g>
<g><path style="opacity:1" fill="#1f2048" d="M 320.5,293.5 C 322.394,292.952 324.06,291.952 325.5,290.5C 326.72,290.887 327.387,291.72 327.5,293C 324.396,297.775 320.896,302.275 317,306.5C 317.836,302.146 319.003,297.813 320.5,293.5 Z"/></g>
<g><path style="opacity:1" fill="#2b2b57" d="M 252.5,282.5 C 262.961,285.755 266.128,292.421 262,302.5C 260.114,305.242 257.614,306.909 254.5,307.5C 260.818,302.105 261.985,295.771 258,288.5C 256.961,287.29 255.794,286.29 254.5,285.5C 254.5,284.833 254.167,284.5 253.5,284.5C 253.167,283.833 252.833,283.167 252.5,282.5 Z"/></g>
<g><path style="opacity:1" fill="#6f6e6d" d="M 241.5,291.5 C 241.416,294.327 240.75,296.994 239.5,299.5C 238.167,297.167 238.167,294.833 239.5,292.5C 239.435,292.938 239.601,293.272 240,293.5C 240.278,292.584 240.778,291.918 241.5,291.5 Z"/></g>
<g><path style="opacity:1" fill="#e7e7e8" d="M 254.5,285.5 C 255.794,286.29 256.961,287.29 258,288.5C 261.985,295.771 260.818,302.105 254.5,307.5C 247.299,309.355 242.299,306.688 239.5,299.5C 240.75,296.994 241.416,294.327 241.5,291.5C 243.671,289.5 246.004,287.666 248.5,286C 250.473,285.505 252.473,285.338 254.5,285.5 Z"/></g>
<g><path style="opacity:1" fill="#141312" d="M 247.5,288.5 C 257.002,287.493 260.502,291.493 258,300.5C 253.333,305.833 248.667,305.833 244,300.5C 242.593,295.556 243.759,291.556 247.5,288.5 Z"/></g>
<g><path style="opacity:1" fill="#c8c8c8" d="M 281.5,287.5 C 282.167,287.5 282.833,287.5 283.5,287.5C 279.713,293.881 276.713,300.548 274.5,307.5C 274.167,307.5 273.833,307.5 273.5,307.5C 275.585,300.572 278.252,293.906 281.5,287.5 Z"/></g>
<g><path style="opacity:1" fill="#1d1d40" d="M 175.5,293.5 C 178.668,296.51 181.835,299.51 185,302.5C 185.788,304.165 186.122,305.831 186,307.5C 181.874,303.22 178.374,298.554 175.5,293.5 Z"/></g>
<g><path style="opacity:1" fill="#e3e3e3" d="M 208.5,313.5 C 209.167,313.5 209.5,313.833 209.5,314.5C 208.509,317.244 208.843,319.911 210.5,322.5C 210.833,323.167 211.167,323.833 211.5,324.5C 209.926,326.102 209.259,328.102 209.5,330.5C 208.127,330.657 206.793,330.49 205.5,330C 194.276,318.391 188.442,304.557 188,288.5C 188.718,287.549 189.551,287.383 190.5,288C 198.613,295.076 204.613,303.576 208.5,313.5 Z"/></g>
<g><path style="opacity:1" fill="#161614" d="M 189.5,291.5 C 192.263,291.744 194.429,293.077 196,295.5C 201.638,303.939 205.471,313.105 207.5,323C 207.167,324.5 206.833,326 206.5,327.5C 196.546,317.589 190.879,305.589 189.5,291.5 Z"/></g>
<g><path style="opacity:1" fill="#2f3166" d="M 290.5,319.5 C 291.022,316.432 291.855,313.432 293,310.5C 293.498,308.456 294.665,307.122 296.5,306.5C 299.81,299.416 304.476,293.249 310.5,288C 311.944,287.219 313.277,287.386 314.5,288.5C 314.432,304.518 308.765,318.351 297.5,330C 295.527,330.495 293.527,330.662 291.5,330.5C 291.815,326.629 291.482,322.962 290.5,319.5 Z"/></g>
<g><path style="opacity:1" fill="#111010" d="M 310.5,290.5 C 312.89,290.685 313.89,292.018 313.5,294.5C 311.222,306.889 305.889,317.722 297.5,327C 296.5,327.667 295.5,327.667 294.5,327C 294.755,312.652 300.089,300.485 310.5,290.5 Z"/></g>
<g><path style="opacity:1" fill="#1f1d3e" d="M 161.5,311.5 C 163.167,312.5 164.5,313.833 165.5,315.5C 159.021,336.054 152.521,356.721 146,377.5C 136,389.5 126,401.5 116,413.5C 115.333,412.833 115.333,412.167 116,411.5C 125.667,399.167 135.333,386.833 145,374.5C 150.416,353.429 155.916,332.429 161.5,311.5 Z"/></g>
<g><path style="opacity:1" fill="#20204a" d="M 268.5,315.5 C 271.943,316.883 273.443,319.55 273,323.5C 274.351,325.019 275.851,326.352 277.5,327.5C 276.019,328.48 274.685,329.647 273.5,331C 275.846,330.921 278.013,330.088 280,328.5C 280.167,328.833 280.333,329.167 280.5,329.5C 276.66,331.921 272.66,334.088 268.5,336C 273.555,334.978 278.388,333.145 283,330.5C 283.5,330.833 284,331.167 284.5,331.5C 278.095,335.246 271.262,337.913 264,339.5C 263.37,337.097 264.203,335.263 266.5,334C 265.167,334 263.833,334 262.5,334C 264.5,332 266.5,330 268.5,328C 266.035,328.565 263.702,329.732 261.5,331.5C 260.5,331 259.5,330.5 258.5,330C 262.054,325.286 265.387,320.453 268.5,315.5 Z"/></g>
<g><path style="opacity:1" fill="#767675" d="M 209.5,314.5 C 210.265,317.096 210.599,319.763 210.5,322.5C 208.843,319.911 208.509,317.244 209.5,314.5 Z"/></g>
<g><path style="opacity:1" fill="#202049" d="M 229.5,318.5 C 231.47,320.647 233.303,322.98 235,325.5C 235.5,324.5 236,323.5 236.5,322.5C 235.572,321.232 235.405,319.899 236,318.5C 238.416,321.663 240.582,324.996 242.5,328.5C 240.877,330.791 239.043,332.791 237,334.5C 233.224,332.516 229.39,331.016 225.5,330C 228.837,332.671 232.504,334.837 236.5,336.5C 237.583,337.365 237.749,338.365 237,339.5C 230.375,337.902 224.208,335.236 218.5,331.5C 221.914,329.043 225.414,326.709 229,324.5C 229.495,322.527 229.662,320.527 229.5,318.5 Z"/></g>
<g><path style="opacity:1" fill="#20204a" d="M 245.5,332.5 C 247.103,332.312 248.437,332.812 249.5,334C 248.39,336.737 248.223,339.571 249,342.5C 249.117,338.266 250.783,334.933 254,332.5C 259.071,334.462 260.738,338.128 259,343.5C 253.573,343.361 248.073,343.528 242.5,344C 240.794,339.362 241.794,335.528 245.5,332.5 Z"/></g>
<g><path style="opacity:1" fill="#202149" d="M 264.5,365.5 C 262.588,367.657 260.921,369.991 259.5,372.5C 258.167,370.833 256.833,369.167 255.5,367.5C 255.672,366.508 255.338,365.842 254.5,365.5C 252.552,360.012 252.052,354.345 253,348.5C 254.787,359.028 255.62,359.028 255.5,348.5C 262.415,352.085 265.415,357.751 264.5,365.5 Z"/></g>
<g><path style="opacity:1" fill="#2e2b49" d="M 305.5,350.5 C 304.081,351.451 302.415,351.784 300.5,351.5C 300.331,356.181 299.998,360.848 299.5,365.5C 296.664,365.202 296.164,365.869 298,367.5C 298.823,376.01 298.657,384.344 297.5,392.5C 297.666,386.824 297.499,381.157 297,375.5C 295.96,378.925 293.96,381.592 291,383.5C 290.502,386.482 290.335,389.482 290.5,392.5C 289.343,384.344 289.177,376.01 290,367.5C 290.717,366.956 291.217,366.289 291.5,365.5C 292.445,360.886 293.112,356.219 293.5,351.5C 294.594,350.418 295.927,349.752 297.5,349.5C 300.115,350.269 302.781,350.603 305.5,350.5 Z"/></g>
<g><path style="opacity:1" fill="#21224c" d="M 247.5,365.5 C 246.448,365.351 245.448,365.517 244.5,366C 245.252,366.671 245.586,367.504 245.5,368.5C 243.348,370.985 240.681,372.651 237.5,373.5C 237.267,371.938 236.6,370.605 235.5,369.5C 235.817,364.928 236.983,360.594 239,356.5C 239.654,355.304 240.154,355.304 240.5,356.5C 239.572,357.768 239.405,359.101 240,360.5C 241.413,357.339 243.08,354.339 245,351.5C 245,352.833 245,354.167 245,355.5C 246,354.167 247,352.833 248,351.5C 248.717,356.22 248.55,360.886 247.5,365.5 Z"/></g>
<g><path style="opacity:1" fill="#f6f6f6" d="M 204.5,390.5 C 204.328,391.492 204.662,392.158 205.5,392.5C 205.611,393.117 205.944,393.617 206.5,394C 203.183,394.498 199.85,394.665 196.5,394.5C 196.672,393.508 196.338,392.842 195.5,392.5C 194.62,389.738 193.454,387.071 192,384.5C 189.936,383.409 187.769,383.242 185.5,384C 186.282,386.74 186.782,389.574 187,392.5C 187.5,393 188,393.5 188.5,394C 184.5,394.667 180.5,394.667 176.5,394C 177.833,384.667 177.833,375.333 176.5,366C 184.167,365.333 191.833,365.333 199.5,366C 200.333,366.833 201.167,367.667 202,368.5C 203.258,373.351 202.424,377.685 199.5,381.5C 200.941,384.724 202.608,387.724 204.5,390.5 Z"/></g>
<g><path style="opacity:1" fill="#f6f6f6" d="M 235.5,369.5 C 236.6,370.605 237.267,371.938 237.5,373.5C 237.334,379.842 237.5,386.175 238,392.5C 238.5,393 239,393.5 239.5,394C 235.5,394.667 231.5,394.667 227.5,394C 228.444,391.281 228.777,388.448 228.5,385.5C 228.33,384.178 228.663,383.011 229.5,382C 226.5,381.333 223.5,381.333 220.5,382C 221.135,385.603 221.802,389.103 222.5,392.5C 221.129,393.787 219.295,394.453 217,394.5C 215.167,394.333 213.333,394.167 211.5,394C 212.337,392.989 212.67,391.822 212.5,390.5C 212.5,389.833 212.5,389.167 212.5,388.5C 212.171,382.794 212.505,377.128 213.5,371.5C 215.65,369.851 217.65,368.018 219.5,366C 225.625,364.432 230.958,365.599 235.5,369.5 Z"/></g>
<g><path style="opacity:1" fill="#efefef" d="M 247.5,365.5 C 249.833,365.5 252.167,365.5 254.5,365.5C 255.338,365.842 255.672,366.508 255.5,367.5C 254.517,371.298 254.183,375.298 254.5,379.5C 255.791,379.737 256.791,379.404 257.5,378.5C 258.167,376.5 258.833,374.5 259.5,372.5C 260.921,369.991 262.588,367.657 264.5,365.5C 265.552,365.351 266.552,365.517 267.5,366C 264.456,368.912 263.289,372.412 264,376.5C 266.608,382.053 269.441,387.387 272.5,392.5C 272.611,393.117 272.944,393.617 273.5,394C 272.207,394.49 270.873,394.657 269.5,394.5C 267.473,394.662 265.473,394.495 263.5,394C 261.372,390.245 259.372,386.412 257.5,382.5C 256.833,382.167 256.167,381.833 255.5,381.5C 253.026,381.535 252.86,382.202 255,383.5C 255.499,387.152 255.665,390.818 255.5,394.5C 251.818,394.665 248.152,394.499 244.5,394C 245.483,385.585 245.817,377.085 245.5,368.5C 245.586,367.504 245.252,366.671 244.5,366C 245.448,365.517 246.448,365.351 247.5,365.5 Z"/></g>
<g><path style="opacity:1" fill="#f5f5f5" d="M 291.5,365.5 C 291.217,366.289 290.717,366.956 290,367.5C 289.177,376.01 289.343,384.344 290.5,392.5C 290.611,393.117 290.944,393.617 291.5,394C 287.311,394.812 283.311,394.645 279.5,393.5C 280.473,391.052 280.806,388.385 280.5,385.5C 280.811,378.91 280.478,372.41 279.5,366C 283.486,365.501 287.486,365.334 291.5,365.5 Z"/></g>
<g><path style="opacity:1" fill="#f8f8f7" d="M 299.5,365.5 C 306.175,365.334 312.842,365.5 319.5,366C 323.468,369.586 323.468,373.086 319.5,376.5C 321.968,378.937 322.968,381.937 322.5,385.5C 322.995,388.948 321.995,391.781 319.5,394C 311.833,394.667 304.167,394.667 296.5,394C 297.056,393.617 297.389,393.117 297.5,392.5C 298.657,384.344 298.823,376.01 298,367.5C 296.164,365.869 296.664,365.202 299.5,365.5 Z"/></g>
<g><path style="opacity:1" fill="#737371" d="M 313.5,368.5 C 310.941,368.198 308.607,368.532 306.5,369.5C 305.957,369.44 305.624,369.107 305.5,368.5C 308.309,367.2 310.976,367.2 313.5,368.5 Z"/></g>
<g><path style="opacity:1" fill="#181716" d="M 192.5,380.5 C 190.833,380.5 189.167,380.5 187.5,380.5C 187.815,376.629 187.482,372.962 186.5,369.5C 185.957,369.44 185.624,369.107 185.5,368.5C 188.282,367.048 190.782,367.381 193,369.5C 193.81,373.358 193.643,377.024 192.5,380.5 Z"/></g>
<g><path style="opacity:1" fill="#171616" d="M 228.5,378.5 C 226.5,378.5 224.5,378.5 222.5,378.5C 222.5,375.5 222.5,372.5 222.5,369.5C 224.23,366.892 226.063,366.892 228,369.5C 228.498,372.482 228.665,375.482 228.5,378.5 Z"/></g>
<g><path style="opacity:1" fill="#838281" d="M 255.5,367.5 C 254.92,371.649 255.586,375.316 257.5,378.5C 256.791,379.404 255.791,379.737 254.5,379.5C 254.183,375.298 254.517,371.298 255.5,367.5 Z"/></g>
<g><path style="opacity:1" fill="#121110" d="M 255.5,367.5 C 256.833,369.167 258.167,370.833 259.5,372.5C 258.833,374.5 258.167,376.5 257.5,378.5C 255.586,375.316 254.92,371.649 255.5,367.5 Z"/></g>
<g><path style="opacity:1" fill="#11100e" d="M 306.5,369.5 C 308.607,368.532 310.941,368.198 313.5,368.5C 313.5,371.167 313.5,373.833 313.5,376.5C 311.5,376.5 309.5,376.5 307.5,376.5C 307.802,373.941 307.468,371.607 306.5,369.5 Z"/></g>
<g><path style="opacity:1" fill="#797877" d="M 186.5,369.5 C 187.482,372.962 187.815,376.629 187.5,380.5C 189.167,380.5 190.833,380.5 192.5,380.5C 190.735,381.461 188.735,381.795 186.5,381.5C 186.5,377.5 186.5,373.5 186.5,369.5 Z"/></g>
<g><path style="opacity:1" fill="#8a8989" d="M 222.5,369.5 C 222.5,372.5 222.5,375.5 222.5,378.5C 224.5,378.5 226.5,378.5 228.5,378.5C 226.393,379.468 224.059,379.802 221.5,379.5C 221.187,375.958 221.521,372.625 222.5,369.5 Z"/></g>
<g><path style="opacity:1" fill="#858584" d="M 312.5,379.5 C 310.265,379.205 308.265,379.539 306.5,380.5C 305.957,380.44 305.624,380.107 305.5,379.5C 307.973,378.203 310.307,378.203 312.5,379.5 Z"/></g>
<g><path style="opacity:1" fill="#171615" d="M 306.5,380.5 C 308.265,379.539 310.265,379.205 312.5,379.5C 313.485,383.634 313.818,387.968 313.5,392.5C 310.813,392.664 308.146,392.497 305.5,392C 307.045,390.178 307.712,388.011 307.5,385.5C 307.493,383.631 307.16,381.964 306.5,380.5 Z"/></g>
<g><path style="opacity:1" fill="#2d293e" d="M 228.5,385.5 C 224.011,385.737 222.011,388.07 222.5,392.5C 221.802,389.103 221.135,385.603 220.5,382C 223.5,381.333 226.5,381.333 229.5,382C 228.663,383.011 228.33,384.178 228.5,385.5 Z"/></g>
<g><path style="opacity:1" fill="#242244" d="M 280.5,385.5 C 280.806,388.385 280.473,391.052 279.5,393.5C 274.833,397.167 270.167,400.833 265.5,404.5C 265.103,403.475 264.437,403.308 263.5,404C 262,405.5 260.5,407 259,408.5C 258.51,407.207 258.343,405.873 258.5,404.5C 262.791,401.877 266.457,398.544 269.5,394.5C 270.873,394.657 272.207,394.49 273.5,394C 272.944,393.617 272.611,393.117 272.5,392.5C 275.141,390.196 277.808,387.862 280.5,385.5 Z"/></g>
<g><path style="opacity:1" fill="#211f40" d="M 212.5,388.5 C 212.5,389.167 212.5,389.833 212.5,390.5C 210.035,390.767 207.701,391.434 205.5,392.5C 204.662,392.158 204.328,391.492 204.5,390.5C 206.993,389.226 209.659,388.56 212.5,388.5 Z"/></g>
<g><path style="opacity:1" fill="#cbcbcb" d="M 212.5,397.5 C 216.167,397.5 219.833,397.5 223.5,397.5C 223.5,398.5 223.5,399.5 223.5,400.5C 222.167,400.5 220.833,400.5 219.5,400.5C 219.5,406.167 219.5,411.833 219.5,417.5C 218.5,417.5 217.5,417.5 216.5,417.5C 216.5,411.833 216.5,406.167 216.5,400.5C 215.167,400.5 213.833,400.5 212.5,400.5C 212.5,399.5 212.5,398.5 212.5,397.5 Z"/></g>
<g><path style="opacity:1" fill="#1c1931" d="M 195.5,392.5 C 196.338,392.842 196.672,393.508 196.5,394.5C 182.879,399.761 168.879,403.927 154.5,407C 168.454,402.629 182.121,397.795 195.5,392.5 Z"/></g>
<g><path style="opacity:1" fill="#d3d2d2" d="M 286.5,403.5 C 291.579,403.782 291.746,404.782 287,406.5C 286.501,410.152 286.335,413.818 286.5,417.5C 285.5,417.5 284.5,417.5 283.5,417.5C 283.5,413.167 283.5,408.833 283.5,404.5C 284.791,404.737 285.791,404.404 286.5,403.5 Z"/></g>
<g><path style="opacity:1" fill="#ddddde" d="M 251.5,411.5 C 251.5,412.833 251.5,414.167 251.5,415.5C 250.5,416.167 249.5,416.833 248.5,417.5C 247.167,417.5 245.833,417.5 244.5,417.5C 243.711,417.217 243.044,416.717 242.5,416C 244.473,415.505 246.473,415.338 248.5,415.5C 248.374,412.405 246.707,410.572 243.5,410C 242.24,404.11 244.574,402.277 250.5,404.5C 248.955,405.452 247.288,405.785 245.5,405.5C 246.029,408.8 248.029,410.8 251.5,411.5 Z"/></g>
<g><path style="opacity:1" fill="#e5e5e5" d="M 271.5,403.5 C 273.527,403.338 275.527,403.505 277.5,404C 280.167,406.333 280.167,408.667 277.5,411C 275.527,411.495 273.527,411.662 271.5,411.5C 271.33,412.822 271.663,413.989 272.5,415C 274.577,415.192 276.577,415.692 278.5,416.5C 275.388,417.983 272.555,417.65 270,415.5C 268.994,411.198 269.494,407.198 271.5,403.5 Z"/></g>
<g><path style="opacity:1" fill="#1d1c1b" d="M 272.5,405.5 C 273.833,405.5 275.167,405.5 276.5,405.5C 276.5,406.833 276.5,408.167 276.5,409.5C 274.833,409.5 273.167,409.5 271.5,409.5C 271.433,408.041 271.766,406.708 272.5,405.5 Z"/></g>
<g><path style="opacity:1" fill="#201d40" d="M 251.5,415.5 C 251.5,414.167 251.5,412.833 251.5,411.5C 252.688,410.636 253.855,409.636 255,408.5C 255.881,411.886 254.714,414.22 251.5,415.5 Z"/></g>
<g><path style="opacity:1" fill="#e2e1e1" d="M 229.5,403.5 C 232.365,403.055 234.865,403.722 237,405.5C 237.238,409.222 237.738,412.889 238.5,416.5C 235.374,417.321 232.041,417.321 228.5,416.5C 226.791,411.2 228.791,408.867 234.5,409.5C 234.5,408.167 234.5,406.833 234.5,405.5C 232.473,405.662 230.473,405.495 228.5,405C 229.056,404.617 229.389,404.117 229.5,403.5 Z"/></g>
<g><path style="opacity:1" fill="#191817" d="M 230.5,411.5 C 231.833,411.5 233.167,411.5 234.5,411.5C 234.5,412.833 234.5,414.167 234.5,415.5C 230.56,416.234 229.227,414.901 230.5,411.5 Z"/></g>
<g><path style="opacity:1" fill="#e7e7e7" d="M 258.5,404.5 C 258.343,405.873 258.51,407.207 259,408.5C 260.5,407 262,405.5 263.5,404C 264.437,403.308 265.103,403.475 265.5,404.5C 264.19,406.148 262.857,407.814 261.5,409.5C 266.909,418.761 266.242,419.428 259.5,411.5C 258.833,413.5 258.167,415.5 257.5,417.5C 256.167,410.833 256.167,404.167 257.5,397.5C 258.474,399.743 258.808,402.076 258.5,404.5 Z"/></g>
<g><path style="opacity:1" fill="#201e3d" d="M 244.5,417.5 C 245.833,417.5 247.167,417.5 248.5,417.5C 237.544,426.781 226.544,436.114 215.5,445.5C 215.167,445.333 214.833,445.167 214.5,445C 224.396,435.599 234.396,426.432 244.5,417.5 Z"/></g>
</svg>
